<svg xmlns="http://www.w3.org/2000/svg" xml:space="preserve" style="enable-background:new 0 0 544.2 544.2" viewBox="0 0 544.2 544.2"><path d="M272.1 0C2.1 0 0 121.8 0 272.1s2.1 272.1 272.1 272.1 272.1-121.8 272.1-272.1S542.1 0 272.1 0z" style="fill:red"/><path d="M236.4 381.5c-21.7 13.9-46.3 25.4-72.9 34.2-3.4 1.1-7.1.8-10.3-1-4.1-2.3-6.5-6.8-6-11.4.5-4.6 3.7-8.5 8.2-10 65.4-21.6 121.2-62.1 146.7-121.2 13.6-31.6-12.4-54.3-39.3-54.3-16.2 0-32.7 8.2-41.1 27.6-15.1 35-53 62.7-103.9 76.8-7.6 2.1-15.1-3.4-15.3-11-.1-5.5 3.6-10.4 9-11.9 43.5-12.1 75.5-34.8 87.6-63.1 5.8-13.5 15.2-24.6 27-31.9 10.8-6.7 23.5-10.3 36.6-10.3 23.3 0 45.3 11.1 57.4 28.9 11.6 17 13.2 37.8 4.3 58.3-8.8 20.5-21.1 39.6-36.6 56.8-14.3 16.2-31.7 30.8-51.4 43.5zm-114.3-8.4c65.4-15.4 127.8-51.3 153.7-111.5 2.6-6-.3-13-6.5-15.6-6.2-2.5-13.3.3-16 6.4-19.9 46.2-70.3 81.8-136.6 97.5-6.3 1.5-10.4 7.5-9.3 13.7 1.1 6.7 7.9 11.1 14.7 9.5zm293.1 17.2c3.1-2.6 4.6-6.7 3.9-10.6-.7-4-3.5-7.3-7.3-8.7-11.3-4.4-25.2-11-32.4-22.2-8.6-13.4-5.4-31.3-1.6-52 5.2-29.1 11.8-65.2-14.3-101.7-18.7-26.2-49.2-43.3-83.6-46.9-36-3.8-71.9 7.8-98.4 31.7-11.6 10.5-18.3 21.7-24.2 31.6-9.3 15.6-17.1 28.6-43.5 37.1-4.2 1.4-7.5 4.8-8.2 10-1.1 8.5 7.3 15.3 15.7 12.6 35.4-11.3 46.4-29.8 57.2-47.7 5.6-9.3 10.8-18 19.8-26.1 21.3-19.3 50.1-28.5 79.2-25.5 27.4 2.9 51.5 16.3 66.2 36.9 20.3 28.5 15.2 56.7 10.3 84-4.2 23.4-8.6 47.5 5 68.6 8.2 12.7 22.1 23 42.7 31.2 4.4 1.7 9.7.9 13.5-2.3zm-165.7 17.2c-5.6 3.2-12.5 7.1-21.6 11.6-4.7 2.3-7.4 7.4-6.6 12.5.8 5.1 5 9.1 10.2 9.9 2.4.4 4.9 0 7.1-1.1 5.9-2.9 11-5.7 15.5-8.1 17.6-9.7 19.2-9.9 35.9 2l6.6 4.6c2.7 1.8 5.9 2.5 9.1 1.9 4.9-.8 8.8-4.4 9.8-9.2 1-4.7-.9-9.6-5-12.3-7.1-4.7-12.3-8.8-16.2-11.9-16.4-12.6-21.8-13-44.8.1zM124.4 195.1c5.2 3.5 11.8 2.1 15.2-2.9l7.3-10.6c29.2-41 80.7-61.1 137.9-53.8 54.4 7 99 37.2 113.7 77.2 13.1 35.4 7.9 64 3.7 86.9-3.6 19.8-6.7 37 4.2 50.7 4.4 5.6 10.7 9.9 19.2 13.1 7.6 2.8 16-2.5 16-10.7 0-5.1-3.1-9.7-8-11.7-3.7-1.5-6.3-3.2-7.8-5.2-4.3-5.5-2.2-17.2.5-32.1 4.4-24.4 10.4-57.8-4.8-99.1-17.8-48.2-70.2-84.6-133.5-92.7-8.6-1.1-17.2-1.7-25.8-1.7-46.4 0-91.5 16.3-123.4 50.8-8 8.8-13 15.2-17.8 26-3.1 7.2-1.9 12.3 3.4 15.8zM324.6 361c-3.3-5.7-10.8-7.7-16.6-4.4-5.9 3.2-7.9 10.5-4.6 16.2 11.1 19 28.4 35 52.1 48.3 3.5 2 7.9 2.1 11.5.3 4-1.9 6.6-5.9 6.8-10.2.1-4.4-2.2-8.4-6.1-10.6-19.9-11.1-34.1-24.3-43.1-39.6z" style="fill:#fff"/></svg>